<svg width="87" height="87" viewBox="0 0 87 87" fill="none" xmlns="http://www.w3.org/2000/svg">
<path d="M74.7656 9.51562H12.2344C10.7306 9.51562 9.51562 10.7306 9.51562 12.2344V74.7656C9.51562 76.2694 10.7306 77.4844 12.2344 77.4844H74.7656C76.2694 77.4844 77.4844 76.2694 77.4844 74.7656V12.2344C77.4844 10.7306 76.2694 9.51562 74.7656 9.51562ZM66.9152 29.354H61.4862C57.2297 29.354 56.4056 31.3761 56.4056 34.3497V40.9002H66.5669L65.2415 51.155H56.4056V77.4844H45.8109V51.1635H36.9495V40.9002H45.8109V33.3387C45.8109 24.5622 51.172 19.7789 59.0054 19.7789C62.7606 19.7789 65.9807 20.0593 66.9237 20.1867V29.354H66.9152Z" fill="#E8F9FD"/>
</svg>
