<svg width="59" height="59" viewBox="0 0 59 59" fill="none" xmlns="http://www.w3.org/2000/svg">
<path d="M58.1216 12.1365C56.0689 13.0461 53.8638 13.6606 51.5456 13.9384C53.9376 12.5072 55.7271 10.2545 56.5803 7.60085C54.333 8.9357 51.8734 9.87529 49.3085 10.3788C47.5837 8.53714 45.2991 7.31648 42.8095 6.9063C40.3198 6.49613 37.7644 6.91938 35.54 8.11034C33.3155 9.30131 31.5465 11.1934 30.5076 13.4927C29.4686 15.7921 29.2179 18.3702 29.7943 20.8267C25.2407 20.598 20.786 19.4145 16.7194 17.3528C12.6529 15.2912 9.06522 12.3975 6.18936 8.85951C5.20603 10.5558 4.64061 12.5224 4.64061 14.6169C4.63951 16.5025 5.10384 18.3591 5.99239 20.0221C6.88095 21.6852 8.16626 23.1032 9.73428 24.1503C7.91579 24.0925 6.13742 23.6011 4.54719 22.7171V22.8646C4.54701 25.5092 5.46177 28.0723 7.13627 30.1192C8.81076 32.166 11.1418 33.5705 13.734 34.0943C12.047 34.5509 10.2784 34.6181 8.56165 34.291C9.293 36.5664 10.7176 38.5562 12.636 39.9818C14.5544 41.4074 16.8706 42.1974 19.2603 42.2412C15.2037 45.4258 10.1937 47.1532 5.0364 47.1456C4.12284 47.1458 3.21005 47.0925 2.30273 46.9858C7.5377 50.3517 13.6316 52.138 19.8552 52.1311C40.9231 52.1311 52.4404 34.6818 52.4404 19.5483C52.4404 19.0567 52.4282 18.5601 52.406 18.0684C54.6463 16.4483 56.5801 14.4421 58.1167 12.1438L58.1216 12.1365Z" fill="#E8F9FD"/>
</svg>
