<svg width="93" height="93" viewBox="0 0 93 93" fill="none" xmlns="http://www.w3.org/2000/svg">
<path d="M87.1875 46.2454C87.1875 46.0456 87.1875 45.8186 87.1784 45.5552C87.1693 44.8195 87.1512 43.9931 87.133 43.1121C87.0604 40.5782 86.9332 38.0534 86.7334 35.6739C86.4609 32.3953 86.0613 29.6616 85.5164 27.6091C84.9414 25.4671 83.8142 23.5135 82.2475 21.9437C80.6809 20.3738 78.7296 19.2427 76.5888 18.6633C74.0186 17.973 68.9871 17.5462 61.9031 17.2828C58.5337 17.1557 54.9281 17.0739 51.3226 17.0285C50.0602 17.0104 48.8886 17.0013 47.8351 16.9922H45.1649C44.1114 17.0013 42.9398 17.0104 41.6774 17.0285C38.0719 17.0739 34.4663 17.1557 31.0969 17.2828C24.0129 17.5553 18.9724 17.9821 16.4112 18.6633C14.2697 19.2413 12.3177 20.3719 10.7508 21.942C9.18392 23.5121 8.05722 25.4664 7.48359 27.6091C6.92959 29.6616 6.53906 32.3953 6.2666 35.6739C6.0668 38.0534 5.93965 40.5782 5.86699 43.1121C5.83975 43.9931 5.83066 44.8195 5.82158 45.5552C5.82158 45.8186 5.8125 46.0456 5.8125 46.2454V46.754C5.8125 46.9538 5.8125 47.1809 5.82158 47.4442C5.83066 48.1799 5.84883 49.0063 5.86699 49.8873C5.93965 52.4212 6.0668 54.946 6.2666 57.3255C6.53906 60.6041 6.93867 63.3378 7.48359 65.3903C8.64609 69.7406 12.0609 73.1736 16.4112 74.3361C18.9724 75.0264 24.0129 75.4532 31.0969 75.7166C34.4663 75.8437 38.0719 75.9255 41.6774 75.9709C42.9398 75.9891 44.1114 75.9981 45.1649 76.0072H47.8351C48.8886 75.9981 50.0602 75.9891 51.3226 75.9709C54.9281 75.9255 58.5337 75.8437 61.9031 75.7166C68.9871 75.4441 74.0276 75.0173 76.5888 74.3361C80.9391 73.1736 84.3539 69.7497 85.5164 65.3903C86.0704 63.3378 86.4609 60.6041 86.7334 57.3255C86.9332 54.946 87.0604 52.4212 87.133 49.8873C87.1603 49.0063 87.1693 48.1799 87.1784 47.4442C87.1784 47.1809 87.1875 46.9538 87.1875 46.754V46.2454ZM80.6484 46.7177C80.6484 46.9084 80.6484 47.1173 80.6394 47.3625C80.6303 48.0709 80.6121 48.852 80.5939 49.6966C80.5304 52.1124 80.4032 54.5282 80.2125 56.7715C79.9673 59.6959 79.6222 62.0936 79.1953 63.7011C78.6322 65.799 76.9793 67.461 74.8904 68.015C72.9832 68.5236 68.1788 68.9323 61.6488 69.1775C58.343 69.3047 54.7828 69.3864 51.2317 69.4318C49.9875 69.45 48.8341 69.4591 47.7987 69.4591H45.2013L41.7683 69.4318C38.2172 69.3864 34.6661 69.3047 31.3512 69.1775C24.8212 68.9232 20.0077 68.5236 18.1096 68.015C16.0207 67.452 14.3678 65.799 13.8047 63.7011C13.3778 62.0936 13.0327 59.6959 12.7875 56.7715C12.5968 54.5282 12.4787 52.1124 12.4061 49.6966C12.3788 48.852 12.3697 48.0618 12.3606 47.3625C12.3606 47.1173 12.3516 46.8993 12.3516 46.7177V46.2817C12.3516 46.091 12.3516 45.8821 12.3606 45.6369C12.3697 44.9285 12.3879 44.1475 12.4061 43.3028C12.4696 40.887 12.5968 38.4712 12.7875 36.2279C13.0327 33.3035 13.3778 30.9059 13.8047 29.2983C14.3678 27.2004 16.0207 25.5384 18.1096 24.9844C20.0168 24.4758 24.8212 24.0671 31.3512 23.8219C34.657 23.6947 38.2172 23.613 41.7683 23.5676C43.0125 23.5494 44.1659 23.5403 45.2013 23.5403H47.7987L51.2317 23.5676C54.7828 23.613 58.3339 23.6947 61.6488 23.8219C68.1788 24.0762 72.9923 24.4758 74.8904 24.9844C76.9793 25.5475 78.6322 27.2004 79.1953 29.2983C79.6222 30.9059 79.9673 33.3035 80.2125 36.2279C80.4032 38.4712 80.5213 40.887 80.5939 43.3028C80.6212 44.1475 80.6303 44.9376 80.6394 45.6369C80.6394 45.8821 80.6484 46.1001 80.6484 46.2817V46.7177Z" fill="#E8F9FD"/>
<path d="M38.418 58.668L59.4883 46.4072L38.418 34.3281V58.668Z" fill="#E8F9FD"/>
</svg>
