<svg width="76" height="76" viewBox="0 0 76 76" fill="none" xmlns="http://www.w3.org/2000/svg">
<path fill-rule="evenodd" clip-rule="evenodd" d="M23.6385 3.37697C27.353 3.20597 28.5373 3.16797 37.9993 3.16797C47.4613 3.16797 48.6457 3.20914 52.357 3.37697C56.0683 3.5448 58.6017 4.13697 60.8183 4.99514C63.1395 5.8723 65.2453 7.24347 66.987 9.0168C68.7603 10.7553 70.1283 12.858 71.0023 15.1823C71.8637 17.399 72.4527 19.9323 72.6237 23.6373C72.7947 27.3581 72.8327 28.5425 72.8327 38.0013C72.8327 47.4633 72.7915 48.6476 72.6237 52.3621C72.4558 56.0671 71.8637 58.6005 71.0023 60.8171C70.1283 63.1418 68.7581 65.2479 66.987 66.989C65.2453 68.7623 63.1395 70.1303 60.8183 71.0043C58.6017 71.8656 56.0683 72.4546 52.3633 72.6256C48.6457 72.7966 47.4613 72.8346 37.9993 72.8346C28.5373 72.8346 27.353 72.7935 23.6385 72.6256C19.9335 72.4578 17.4002 71.8656 15.1835 71.0043C12.8589 70.1302 10.7528 68.7599 9.01168 66.989C7.23955 65.2494 5.86818 63.1443 4.99318 60.8203C4.13502 58.6036 3.54602 56.0703 3.37502 52.3653C3.20402 48.6445 3.16602 47.4601 3.16602 38.0013C3.16602 28.5393 3.20718 27.355 3.37502 23.6436C3.54285 19.9323 4.13502 17.399 4.99318 15.1823C5.86947 12.8582 7.24189 10.7531 9.01485 9.01364C10.7535 7.24189 12.8575 5.87054 15.1803 4.99514C17.397 4.13697 19.9303 3.54797 23.6353 3.37697H23.6385ZM52.0752 9.64697C48.4018 9.47914 47.2998 9.4443 37.9993 9.4443C28.6988 9.4443 27.5968 9.47914 23.9235 9.64697C20.5257 9.80213 18.6827 10.369 17.454 10.8471C15.8295 11.4805 14.6673 12.231 13.4482 13.4501C12.2925 14.5745 11.4031 15.9432 10.8452 17.456C10.367 18.6846 9.80018 20.5276 9.64502 23.9255C9.47718 27.5988 9.44235 28.7008 9.44235 38.0013C9.44235 47.3018 9.47718 48.4038 9.64502 52.0771C9.80018 55.475 10.367 57.318 10.8452 58.5466C11.4025 60.0571 12.2923 61.4283 13.4482 62.5525C14.5723 63.7083 15.9435 64.5981 17.454 65.1555C18.6827 65.6336 20.5257 66.2005 23.9235 66.3556C27.5968 66.5235 28.6957 66.5583 37.9993 66.5583C47.303 66.5583 48.4018 66.5235 52.0752 66.3556C55.473 66.2005 57.316 65.6336 58.5447 65.1555C60.1692 64.5221 61.3313 63.7716 62.5505 62.5525C63.7063 61.4283 64.5962 60.0571 65.1535 58.5466C65.6317 57.318 66.1985 55.475 66.3537 52.0771C66.5215 48.4038 66.5563 47.3018 66.5563 38.0013C66.5563 28.7008 66.5215 27.5988 66.3537 23.9255C66.1985 20.5276 65.6317 18.6846 65.1535 17.456C64.5202 15.8315 63.7697 14.6693 62.5505 13.4501C61.4261 12.2945 60.0574 11.4051 58.5447 10.8471C57.316 10.369 55.473 9.80213 52.0752 9.64697ZM33.5502 48.7395C36.0349 49.7738 38.8017 49.9134 41.378 49.1344C43.9542 48.3554 46.1801 46.7062 47.6754 44.4684C49.1708 42.2306 49.8429 39.5431 49.5768 36.8648C49.3108 34.1865 48.1232 31.6837 46.2168 29.7838C45.0016 28.5693 43.5322 27.6394 41.9144 27.0609C40.2966 26.4825 38.5707 26.2699 36.8609 26.4386C35.1511 26.6072 33.5 27.1529 32.0264 28.0362C30.5528 28.9196 29.2934 30.1187 28.3388 31.5472C27.3842 32.9757 26.7583 34.598 26.506 36.2975C26.2537 37.997 26.3813 39.7312 26.8797 41.3754C27.3781 43.0196 28.2349 44.5329 29.3883 45.8063C30.5417 47.0796 31.9631 48.0814 33.5502 48.7395Z" fill="#E8F9FD"/>
<path fill-rule="evenodd" clip-rule="evenodd" d="M25.3398 25.3405C27.0024 23.6779 28.9761 22.3591 31.1484 21.4593C33.3207 20.5595 35.6489 20.0964 38.0001 20.0964C40.3514 20.0964 42.6796 20.5595 44.8518 21.4593C47.0241 22.3591 48.9979 23.6779 50.6604 25.3405C52.323 27.0031 53.6419 28.9768 54.5416 31.1491C55.4414 33.3214 55.9045 35.6496 55.9045 38.0008C55.9045 40.3521 55.4414 42.6803 54.5416 44.8525C53.6419 47.0248 52.323 48.9986 50.6604 50.6612C47.3027 54.0189 42.7487 55.9052 38.0001 55.9052C33.2516 55.9052 28.6975 54.0189 25.3398 50.6612C21.9821 47.3034 20.0957 42.7494 20.0957 38.0008C20.0957 33.2523 21.9821 28.6982 25.3398 25.3405ZM59.8755 22.7628C60.2875 22.3742 60.6173 21.9068 60.8454 21.3884C61.0736 20.87 61.1954 20.3111 61.2036 19.7448C61.2119 19.1784 61.1064 18.6162 60.8935 18.0914C60.6806 17.5666 60.3645 17.0898 59.964 16.6893C59.5635 16.2888 59.0867 15.9727 58.5619 15.7598C58.0371 15.5469 57.4748 15.4414 56.9085 15.4497C56.3422 15.4579 55.7833 15.5797 55.2649 15.8079C54.7465 16.036 54.2791 16.3658 53.8905 16.7778C53.1346 17.5791 52.7208 18.6434 52.7368 19.7448C52.7529 20.8462 53.1976 21.8979 53.9764 22.6768C54.7553 23.4557 55.8071 23.9004 56.9085 23.9164C58.0099 23.9325 59.0742 23.5187 59.8755 22.7628Z" fill="#E8F9FD"/>
</svg>
